<?xml version="1.0" encoding="UTF-8"?>
<!DOCTYPE svg PUBLIC "-//W3C//DTD SVG 1.1//EN" "http://www.w3.org/Graphics/SVG/1.1/DTD/svg11.dtd">
<!-- Creator: CorelDRAW -->
<svg xmlns="http://www.w3.org/2000/svg" xml:space="preserve" width="0.862579in" height="0.995799in" version="1.1" style="shape-rendering:geometricPrecision; text-rendering:geometricPrecision; image-rendering:optimizeQuality; fill-rule:evenodd; clip-rule:evenodd"
viewBox="0 0 230.91 266.58"
 xmlns:xlink="http://www.w3.org/1999/xlink"
 xmlns:xodm="http://www.corel.com/coreldraw/odm/2003">
 <defs>
  <style type="text/css">
   <![CDATA[
    .fil0 {fill:#00ABC9;fill-rule:nonzero}
   ]]>
  </style>
 </defs>
 <g id="Layer_x0020_1">
  <metadata id="CorelCorpID_0Corel-Layer"/>
  <g id="_3097792011312">
   <polygon class="fil0" points="115.43,45.8 115.49,45.77 115.49,0 115.43,0.03 115.43,45.77 "/>
   <polygon class="fil0" points="115.48,220.81 115.46,220.79 115.46,220.81 62.78,190.4 39.67,177.06 39.67,177.02 39.64,177.06 0.06,199.9 0.06,199.93 115.48,266.58 230.91,199.93 191.27,177.06 "/>
   <polygon class="fil0" points="191.27,89.52 191.27,177.06 230.91,199.94 230.91,66.64 115.49,0 115.49,45.77 "/>
   <polygon class="fil0" points="0.06,199.9 39.64,177.06 39.67,177.02 39.67,89.52 115.43,45.8 115.43,45.77 115.43,0.03 115.43,0 -0,66.64 -0,199.93 "/>
   <polygon class="fil0" points="81.09,170.56 66.01,161.85 66.01,104.72 115.47,133.29 115.47,190.39 115.48,190.4 115.48,133.29 164.93,104.72 115.48,76.18 115.44,76.2 66.01,104.72 66.01,161.83 66.01,161.85 "/>
   <polygon class="fil0" points="115.48,133.29 115.48,190.4 164.93,161.85 164.93,104.72 "/>
   <polygon class="fil0" points="66.01,104.72 66.01,161.85 81.09,170.56 115.47,190.4 115.47,190.39 115.47,133.29 "/>
  </g>
 </g>
</svg>
